# xmcd
#
# Track frame offsets: 
#        150
#        23282
#        38282
#        56745
#        73155
#        92977
#        108825
#        127140
#        141635
#        160420
#        180802
#        200302
#
# Disc length: 2900 seconds
#
# Revision: 6
# Processed by: cddbd v1.5.2PL0 Copyright (c) Steve Scherf et al.
# Submitted via: ExactAudioCopy v0.99pb4
#
DISCID=9f0b520c
DTITLE=Enanitos Verdes - Tracción Acústica
DYEAR=1998
DGENRE=Rock Latino
TTITLE0=Por El Resto
TTITLE1=Te Ví en Un Tren
TTITLE2=El Guerrero
TTITLE3=La Muralla Verde
TTITLE4=Sólo Dame Otra Oportunidad
TTITLE5=Guitarra Blancas
TTITLE6=Cada Vez Que Digo Adiós
TTITLE7=El Extraño del Pelo Largo
TTITLE8=Tus Viejas Cartas
TTITLE9=No Me Verás/Metro Bladeras
TTITLE10=Aún Sigo Cantando
TTITLE11=Fiesta Jurasica
EXTD=
EXTT0=
EXTT1=
EXTT2=
EXTT3=
EXTT4=
EXTT5=
EXTT6=
EXTT7=
EXTT8=
EXTT9=
EXTT10=
EXTT11=
PLAYORDER=
